<svg width="11" height="13" viewBox="0 0 11 13" fill="none" xmlns="http://www.w3.org/2000/svg">
<path d="M10.3734 3.29327C10.3712 3.21717 10.3408 3.14293 10.2848 3.08689L7.28706 0.0891465C7.28693 0.0890195 7.28681 0.0889688 7.2867 0.0888418C7.23163 0.0339473 7.15569 0 7.07185 0H1.26682C0.913454 0 0.626007 0.287422 0.626007 0.640783V12.3592C0.626007 12.7125 0.913429 13 1.26679 13H9.73314C10.0865 13 10.3739 12.7126 10.3739 12.3592V3.3021C10.374 3.29911 10.3736 3.29621 10.3734 3.29327ZM7.37623 1.03926L9.33474 2.99777H7.50468C7.43384 2.99777 7.37623 2.94016 7.37623 2.86932V1.03926ZM9.76521 12.3592C9.76519 12.3769 9.75081 12.3912 9.73317 12.3912H1.26682C1.24917 12.3912 1.2348 12.3769 1.2348 12.3592V0.640783C1.2348 0.623137 1.24917 0.608766 1.26682 0.608766H6.76747V2.86932C6.76747 3.2758 7.09818 3.60654 7.50468 3.60654H9.76524V12.3592H9.76521Z" fill="#1B80B1"/>
</svg>
