<svg width="20" height="18" viewBox="0 0 20 18" fill="none" xmlns="http://www.w3.org/2000/svg">
<path d="M19.1633 6.16665H18.3333V3.83331H17.6667V2.49998H8.362L7.17167 0.833313H0.910667C0.408667 0.833313 0 1.24198 0 1.74398V16.3063H0.002C0.000333333 16.494 0.0586667 16.6776 0.176 16.8313C0.339333 17.0446 0.586667 17.1666 0.855 17.1666H15.7747C16.16 17.1666 16.4993 16.907 16.5913 16.5623L20 7.21631V7.15731C20 6.58331 19.648 6.16665 19.1633 6.16665ZM17.6667 6.16665H15V5.83331C15 5.64898 14.8507 5.49998 14.6667 5.49998C14.4827 5.49998 14.3333 5.64898 14.3333 5.83331V6.16665H12.6667V5.83331C12.6667 5.64898 12.5173 5.49998 12.3333 5.49998C12.1493 5.49998 12 5.64898 12 5.83331V6.16665H10.3333V5.83331C10.3333 5.64898 10.184 5.49998 10 5.49998C9.816 5.49998 9.66667 5.64898 9.66667 5.83331V6.16665H8V5.83331C8 5.64898 7.85067 5.49998 7.66667 5.49998C7.48267 5.49998 7.33333 5.64898 7.33333 5.83331V6.16665H5.66667V5.83331C5.66667 5.64898 5.51733 5.49998 5.33333 5.49998C5.14933 5.49998 5 5.64898 5 5.83331V6.16665H4.24367C4.196 6.16665 4.149 6.17065 4.103 6.17831C3.93667 6.20598 3.78633 6.28331 3.66667 6.39131V4.49998H17.6667V6.16665ZM1.66667 11.5976V6.49998H3.565C3.50233 6.58098 3.45333 6.67198 3.427 6.77098L3.32133 7.06098L1.66667 11.5976ZM3 5.83331H2.138L2.33333 5.63798L3 4.97131V5.83331ZM17 3.16665V3.83331H3.19533L2.33333 4.69531V3.16665H8.83833H17ZM0.666667 1.74398C0.666667 1.60931 0.776333 1.49998 0.910667 1.49998H6.82833L7.54267 2.49998H1.66667V5.36198L1 6.02865V13.3903L0.666667 14.2996V1.74398ZM15.9563 16.361C15.9343 16.4426 15.8593 16.5 15.7747 16.5H0.855C0.774 16.5 0.726667 16.4536 0.705667 16.426C0.684667 16.3986 0.652333 16.3406 0.664667 16.29L1 15.3706V15.371L4.05333 6.99965L4.062 6.97231C4.084 6.89065 4.159 6.83331 4.24367 6.83331H18.3333H19.1633C19.29 6.83331 19.3223 7.01531 19.3307 7.10631L15.9563 16.361Z" fill="white"/>
</svg>
